<svg version="1" xmlns="http://www.w3.org/2000/svg" width="1298.667" height="1298.667" viewBox="0 0 974.000000 974.000000"><path d="M661.5 142.7c-6.6 1.1-13.1 2.6-14 3.3-.5.4-2.1 1.1-3.5 1.5-2.6.8-9.8 6.2-13.8 10.3-5.5 5.7-9.3 14.5-10.7 24.7-.3 2.2-.8 5.1-1 6.5-.3 1.4-.7 4.7-1 7.5-.3 2.7-.8 6.8-1 9-.9 7-1.4 11.8-2 18.5-.6 6.8-1.3 13.5-2 18.5-.2 1.6-.7 5.9-1 9.5-.3 3.6-.8 8.3-1.1 10.5-1 8.6-1.3 12.2-1.9 18-.6 6.6-1.4 13.4-2 18-.2 1.6-.7 6.1-1 10-.4 3.8-.8 8-1 9.3-.2 1.3-.7 5.3-1 9-.4 3.7-.8 7.4-1 8.2-.2.8-.7 5.1-1 9.5-.4 4.4-.8 8.7-1 9.5-.2.8-.7 4.9-1 9-.4 4.1-.8 8.6-1 10-.2 1.4-.6 5.4-1 9-.4 3.6-.8 7.6-1 9-.2 1.4-.6 5.4-1 9-.3 3.6-.8 8.1-1 10-.2 1.9-.7 6-1 9-.4 3-.8 6.8-1 8.5-.7 6.3-1.8 16.1-2 18.5-1.1 11-1.6 16-2 19-.2 1.9-.7 6-1 9-.4 3-.8 7.1-1.1 9-.2 1.9-.7 6.4-1 10-1.2 11.6-2.3 22.2-2.9 27-.3 1.9-.7 5.2-1 7.2-.3 2.1-.7 5.5-1 7.5-.7 5-3.4 21.2-3.9 23.9-.2 1.2-.7 3.7-1 5.6-.3 1.9-1.9 9.7-3.7 17.3-9.2 40.9-9.3 42.2-6.8 52.9 2.2 9.6 10.8 23.8 17.7 29.3 11.6 9.3 24.2 10.9 46.7 5.9 6-1.3 9.3-2.2 22.5-6.1 22.6-6.7 39.3-11.5 41.5-11.9 1.1-.2 5.6-1.3 10-2.4 7.5-1.9 29.6-6.4 37.5-7.7 1.9-.3 4.2-.8 5-1 1.4-.4 8.8-1.4 14-2 1.4-.1 4.8-.6 7.5-1 8.9-1.2 9.9-1.4 18-2.1 4.4-.3 8.7-.8 9.6-.9 3.7-.7 33.3-1.8 47.9-1.9 14.8 0 23.9.5 43 2.3 4.7.5 13.7.9 20 .9 19.8.1 35.4-6 48.1-18.7 9.7-9.8 13.8-19.8 13.4-33.1-.3-8.3-1.6-13.2-5.7-20-9.5-15.7-26.5-20.9-51.3-15.5-6.1 1.3-12.8 2.6-15 2.9-2.3.4-5 .8-6 1-1.1.2-4.5.7-7.5 1.1-3 .3-6.6.8-8 1-1.4.2-5.9.7-10 1-4.1.4-8.8.8-10.5 1-1.6.2-7.3.6-12.5 1s-11.5.8-14 1c-2.5.2-9.7.7-16 1-6.3.3-14 .7-17 1-3 .2-9.5.7-14.5 1-4.9.3-10.1.8-11.5 1-1.4.2-4.7.6-7.5 1-2.7.3-6.1.8-7.5 1-1.4.2-4.7.6-7.5 1-2.7.3-7.7 1-11 1.5s-7.8 1.2-10 1.5c-2.2.4-8 1.2-13 2-4.9.7-11.5 1.7-14.5 2.1-3 .3-6.6.8-8 1-4.2.6-17.3 1.7-20.5 1.8-4.3.1-5.4-2.9-4.9-12.8.2-4.5.6-9.7.8-11.6.3-1.9.8-6.7 1.2-10.5.3-3.9.8-7.8 1-8.7.1-.9.6-4.8.9-8.5.4-3.7.8-8 1.1-9.4.2-1.4.6-5.2.9-8.5.3-3.2.7-7 1-8.4.2-1.4.7-5.2 1-8.5.7-7.1 1.4-12.7 2-17.5.3-1.9.7-5.5.9-8 .4-3.8 1.6-13.7 4.1-34.5.2-2.2.7-6.3 1-9 .3-2.8.8-6.6 1-8.5.3-1.9.7-5.5 1-8 .3-2.5.7-6.1 1-8 .2-1.9.7-6 1.1-9 1-9 1.5-13 2.9-23.5.2-2.2.7-6 1-8.5.3-2.5.8-6.1 1-8.1.3-2 .8-5.6 1-8 .3-2.4.9-7.6 1.4-11.4.6-3.9 1.3-8.9 1.6-11.3.3-2.3.8-6.1 1.1-8.5.4-2.3.8-5.3.9-6.7.5-4.6 1.6-12.5 2-15 .6-3.4 1.2-7.7 1.9-13 .3-2.5.8-5.4 1-6.5.2-1.1.7-4.3 1.1-7 .4-2.8.9-5.9 1-7 .2-1.1.6-3.8 1-6 .3-2.2.9-5.4 1.2-7 .3-1.7.7-3.9.9-5 .2-1.1 1.3-7.4 2.4-14 1.1-6.6 2.2-13.4 2.4-15 .2-1.7.7-5.7 1.1-9 1.8-14 1-21-3.2-29.3-2.5-5-13.6-17.2-15.6-17.2-.5 0-2.1-.8-3.5-1.8-5.1-3.5-19-5.8-26.7-4.5zM263.7 239.6c-.1.1-5.6.5-12.2.9s-13.8.8-16 1c-16.6 1.1-26.2 1.8-27.5 2-.9.2-6 .6-11.5 1s-12.5.8-15.5 1.1c-25.5 1.8-54.9 2.2-97.5 1.4-9.4-.1-16.7.2-19.5 1-11.4 3-26.5 15.1-32.4 26-8.2 15.1-6.6 29.7 4.2 39 4.8 4 17.3 10.1 24.9 12 7.3 1.8 8.3 3.8 7.8 14.8-.3 5.2-.7 10.2-.9 11.1-.3.9-.7 3.6-1 6.1-.3 2.5-1 7-1.6 10-1 5.5-1.4 7.7-2.4 13.5-.9 5.1-2.8 16.8-3.2 20-2.1 13.5-3.4 21.7-3.9 25.5-.3 2.5-1.3 8.5-2 13.5-.8 4.9-1.7 11.5-2 14.5-.3 3-1 8.2-1.5 11.5-.5 3.3-1.1 7.6-1.4 9.5-.2 1.9-.7 6-1.1 9-.4 3-.9 6.6-1 8-.1 1.4-.5 5-.9 8s-.9 7.1-1.1 9c-.2 1.9-.7 6-1.1 9-.7 5.8-.8 6.6-1.8 17.5-.4 3.8-.9 8.6-1.1 10.5-.3 1.9-.7 6.2-1 9.5-.3 3.3-.8 7.6-1 9.5-.3 1.9-.7 7.1-1.1 11.5-.3 4.4-.7 9.6-.9 11.5-.2 1.9-.6 7.5-1 12.5-.3 4.9-.8 10.6-1 12.5-.4 3.6-1.2 14.7-2 31-.3 5.2-.7 11.5-1 14-.2 2.5-.7 7.9-1 12-.3 4.1-.8 8.2-1 9-.2.8-.6 3.6-.9 6.2-.6 5.6-3.5 14.2-8.8 26.3-8.4 19.3-9.2 23.7-6 32.3 4.7 12.2 18.8 28.3 28.8 32.9 15.5 7.1 36.7 2.8 60.3-12 23.7-15 38.8-21.2 68.1-28.2 47.9-11.4 67.5-17.1 95-27.4 10.1-3.8 10.9-4.2 18-7.4 3-1.3 8-3.5 11-4.8 17.1-7.2 53.7-27.5 71.5-39.7 8.8-6.1 32.8-24 36-26.9 1.1-1 4.9-4.3 8.5-7.3 8.5-7.1 30-28.6 37.6-37.5 19-22.4 28-36.7 41.9-67 3.5-7.5 9.5-27.3 11.1-36 .3-1.7.9-4.8 1.4-7 1.9-8.5 2.5-17.7 2.5-37.5 0-21.1-.3-25.1-3-40.5-10-57-44.9-104.1-97.7-132-15.4-8.1-37.6-16.3-51.7-19.1-.7-.1-3.4-.7-6-1.3-7.3-1.7-21.6-3.8-32.1-4.8-5.3-.4-50.9-1.1-51.3-.7zm38.8 71.9c8.1 1.2 20.2 3.7 26.5 5.5 36.6 10.1 67 34.3 81 64.5 1.8 3.8 3.6 7.7 4 8.6 1.2 2.3 4.7 15.8 5.5 20.9.4 2.5.9 5.4 1.1 6.5.9 4.1 1.1 27.3.3 34.8-1.3 13-1.9 16.4-5 28.5-5.4 21.1-15.4 41.6-29.9 61.4-7.5 10.2-30.2 34.1-39.2 41.2-2.6 2-5.3 4.2-6 4.9-9 8.5-37.3 26.3-57.9 36.4-24.1 11.9-40.4 18-77.4 29.2-44.5 13.4-71.7 20.1-82.4 20.5-4.3.1-4.5 0-5.3-3.4-1.6-6.4-1.1-50.4.7-72 .2-2.5.6-8.3.9-13 .4-4.7.9-10.8 1.1-13.5.6-6 1.3-12.8 2.1-21.5.3-3.6.7-7.6.9-9 .2-1.4.7-5.7 1.1-9.5.3-3.9.8-7.8 1-8.7.1-.9.5-4.8.9-8.5.3-3.7.8-7.9 1-9.3.3-1.4.7-4.8 1.1-7.5.3-2.8.7-6.1.9-7.5.2-1.4.6-4.8 1-7.5.6-4.8.9-7.8 2-15.8.3-2 .7-5.4 1-7.5 1.5-12.5 6.6-47 11.6-79.2 2.2-14.6 4.2-27.8 4.4-29.4 1.2-9.6 4.9-30.2 5.5-30.9.8-.9.3-.9 22.5-3.6 15.6-1.9 20.2-2.4 33.5-3.7 3.6-.3 8.1-.7 10-.9 1.9-.3 9.4-.7 16.5-1.1 7.2-.4 13.2-.8 13.4-1 .6-.6 47.2.4 51.6 1.1z"/></svg>